<?xml version="1.0" encoding="UTF-8" standalone="no"?>
<!-- Created with Inkscape (http://www.inkscape.org/) -->

<svg
   width="144.1362mm"
   height="40.644733mm"
   viewBox="0 0 144.1362 40.644734"
   version="1.1"
   id="svg5"
   inkscape:version="1.2.1 (9c6d41e, 2022-07-14)"
   sodipodi:docname="name.svg"
   xmlns:inkscape="http://www.inkscape.org/namespaces/inkscape"
   xmlns:sodipodi="http://sodipodi.sourceforge.net/DTD/sodipodi-0.dtd"
   xmlns="http://www.w3.org/2000/svg"
   xmlns:svg="http://www.w3.org/2000/svg">
  <sodipodi:namedview
     id="namedview7"
     pagecolor="#ffffff"
     bordercolor="#000000"
     borderopacity="0.25"
     inkscape:showpageshadow="2"
     inkscape:pageopacity="0.0"
     inkscape:pagecheckerboard="0"
     inkscape:deskcolor="#d1d1d1"
     inkscape:document-units="mm"
     showgrid="false"
     inkscape:zoom="1.9514673"
     inkscape:cx="364.59745"
     inkscape:cy="108.89242"
     inkscape:window-width="1920"
     inkscape:window-height="1027"
     inkscape:window-x="0"
     inkscape:window-y="246"
     inkscape:window-maximized="0"
     inkscape:current-layer="layer1" />
  <defs
     id="defs2" />
  <g
     inkscape:label="Layer 1"
     inkscape:groupmode="layer"
     id="layer1"
     transform="translate(-42.357901,-23.066676)">
    <path
       style="fill:#e2e8f0;stroke-width:0.264583;fill-opacity:1"
       id="path201"
       d="m 62.856871,34.337368 c -0.04252,0.291269 -0.09583,0.581165 -0.127547,0.873808 -0.111858,1.032044 -0.135991,1.780378 -0.168598,2.833626 -0.04648,1.501365 -0.04234,2.994475 0.0055,4.49534 0.08625,1.071993 0.01984,0.610677 0.158583,1.389202 0,0.11937 1.688142,0.11937 1.688142,0 v 0 c 0.138745,-0.778525 0.07233,-0.317209 0.158581,-1.389202 0.04786,-1.500865 0.052,-2.993975 0.0055,-4.49534 -0.03261,-1.053248 -0.05674,-1.801582 -0.168595,-2.833626 -0.03172,-0.292643 -0.08503,-0.582539 -0.12755,-0.873808 0,-0.100695 -1.424059,-0.100695 -1.424059,0 z" />
    <path
       style="fill:#e2e8f0;stroke-width:0.264583;fill-opacity:1"
       id="path203"
       d="m 62.129243,29.168349 c 0.008,0.116589 0.04554,0.864759 0.110279,0.964877 0.09644,0.14914 0.29139,0.203142 0.437086,0.304713 0.0069,0.03449 0.494543,-0.06241 0.487691,-0.09689 v 0 c 0.09115,-0.127785 0.240186,-0.229957 0.273454,-0.383357 0.01431,-0.06605 -0.168616,-0.790041 -0.189206,-0.874747 -0.006,-0.07915 -1.125344,0.0062 -1.119304,0.0854 z" />
    <path
       style="fill:#e2e8f0;stroke-width:0.264583;fill-opacity:1"
       id="path281"
       d="m 89.150226,28.559627 c -0.111567,0.627648 -0.261742,1.249643 -0.334695,1.882939 -0.21599,1.874944 -0.29141,4.426678 -0.30438,6.279436 -0.01275,1.821323 0.01125,4.398603 0.247597,6.249374 0.08644,0.676896 0.275895,1.336608 0.413841,2.004914 0.191288,0.317077 0.382574,0.634156 0.57386,0.951235 0.0075,0.05932 0.846468,-0.04658 0.83898,-0.105902 v 0 c 0.09628,-0.313735 0.192566,-0.62747 0.288851,-0.941205 0.04908,-0.656039 0.122828,-1.310698 0.147249,-1.968116 0.06299,-1.695675 0.02013,-4.563967 -0.01225,-6.191427 -0.04048,-2.035112 -0.08481,-4.208426 -0.272994,-6.243479 -0.05695,-0.615849 -0.169585,-1.225272 -0.254376,-1.837907 0.0057,-0.09417 -1.326041,-0.174027 -1.331687,-0.07986 z" />
    <path
       style="fill:#e2e8f0;stroke-width:0.264583;fill-opacity:1"
       id="path317"
       d="m 128.74997,23.131059 c -0.53748,2.9607 -0.66726,5.976044 -0.64671,8.979568 0.0161,2.353781 0.14991,4.943377 0.41271,7.291096 0.10565,0.943853 0.27592,1.879349 0.41389,2.819022 0.18796,0.74468 0.67489,3.531404 2.09941,3.427153 0.77945,-0.05704 2.1922,-1.114161 2.84438,-1.46662 0.59345,-0.320725 1.21323,-0.590164 1.81984,-0.885246 2.00678,-0.730832 2.33447,-0.918257 4.42132,-1.405072 0.65336,-0.152413 1.3247,-0.21958 1.97789,-0.372697 0.49556,-0.116166 0.97597,-0.289412 1.46396,-0.434121 0.0879,-0.02815 -0.31025,-1.271558 -0.39817,-1.243404 v 0 c -0.61326,-0.06779 -1.22309,-0.222393 -1.8398,-0.203356 -0.74764,0.02307 -1.4903,0.163322 -2.2198,0.328655 -2.16603,0.490911 -2.68604,0.844719 -4.69687,1.747943 -0.56844,0.368163 -2.48106,1.48195 -2.98375,2.200913 -0.0861,0.123095 0.11765,0.277741 0.15391,0.423497 0.0253,0.101778 0.0553,0.414888 0.0294,0.313264 -0.2265,-0.887661 -0.23453,-1.696193 -0.31701,-2.63552 -0.0543,-0.916593 -0.11826,-1.832662 -0.16279,-2.749782 -0.26047,-5.364676 -0.28106,-10.744065 -0.81621,-16.093146 0.003,-0.109997 -1.55261,-0.152144 -1.55558,-0.04215 z" />
    <path
       style="fill:#e2e8f0;stroke-width:0.264583;fill-opacity:1"
       id="path585"
       d="m 148.53074,32.38659 c -0.11423,0.640016 -0.29375,1.271762 -0.34269,1.920049 -0.17797,2.357311 2.6e-4,5.78838 1.44788,7.783214 0.37101,0.511257 0.86924,1.013806 1.47643,1.188042 0.6894,0.197832 1.43104,-0.09893 2.14657,-0.148397 0.57155,-0.557067 1.24131,-1.028594 1.71464,-1.6712 1.40693,-1.910054 2.37604,-5.127369 2.45506,-7.494434 0.0205,-0.612947 -0.12983,-1.219687 -0.19474,-1.829531 2.3e-4,-0.08756 -1.23811,-0.09085 -1.23834,-0.0033 v 0 c -0.0685,0.536683 -0.11897,1.075991 -0.20561,1.61005 -0.3801,2.342862 -0.92396,4.735608 -2.06828,6.841461 -0.26899,0.495022 -0.65946,0.91363 -0.98919,1.370446 -0.73656,0.494726 -0.81218,0.835941 -1.5583,-0.396335 -0.36441,-0.601845 -0.57165,-1.292273 -0.75089,-1.972625 -0.22727,-0.862645 -0.34023,-1.752288 -0.46324,-2.635848 -0.27702,-1.989833 -0.26019,-2.58269 -0.33234,-4.45335 0.008,-0.07756 -1.0893,-0.185822 -1.09696,-0.108257 z" />
    <path
       style="fill:#e2e8f0;stroke-width:0.264583;fill-opacity:1"
       id="path587"
       d="m 168.34566,33.490299 c -0.10175,-0.185145 -0.17731,-0.387318 -0.30525,-0.555437 -0.60009,-0.788551 -1.57667,-1.500026 -2.63813,-1.347862 -0.58829,0.08434 -1.22743,0.210598 -1.68073,0.594937 -0.57331,0.486093 -0.82752,1.255027 -1.24128,1.882542 -0.21152,0.866923 -0.54495,1.712926 -0.63456,2.600767 -0.33056,3.274878 0.7976,7.479355 4.36569,8.517149 0.65329,0.190013 1.35891,0.07027 2.03836,0.10541 2.68544,-1.079608 1.60937,-0.298402 3.35382,-2.160053 0.0562,-0.07119 -0.95062,-0.865981 -1.00682,-0.79479 v 0 c -1.31103,1.150946 -0.64503,0.680789 -1.96282,1.45904 -0.48452,0.03503 -0.97686,0.198625 -1.45355,0.105087 -1.2472,-0.244732 -2.08765,-1.102873 -2.63907,-2.211266 -0.67745,-1.361712 -0.91269,-3.235991 -0.87353,-4.723765 0.0197,-0.749784 0.20371,-1.486191 0.30556,-2.229289 0.15407,-0.384839 0.41814,-1.613379 1.05169,-1.889125 0.93757,-0.408059 1.82785,0.449242 2.43264,1.042615 0.028,0.06279 0.91598,-0.333172 0.88798,-0.39596 z" />
    <path
       style="fill:#e2e8f0;stroke-width:0.264583;fill-opacity:1"
       id="path748"
       d="m 72.228394,44.936378 c -0.525446,1.291801 -1.034531,2.593226 -1.479023,3.915505 -0.185203,0.550936 -0.392324,1.097261 -0.52069,1.664144 -0.105518,0.465979 -0.118795,0.948143 -0.178191,1.422215 -0.01834,0.06762 0.937932,0.326943 0.95627,0.259326 v 0 c 0.234392,-0.426754 0.510617,-0.833075 0.703181,-1.280266 0.230208,-0.534617 0.385318,-1.098743 0.560284,-1.653899 0.430046,-1.364515 0.835483,-2.755668 0.95672,-4.187606 0.0099,-0.07061 -0.988692,-0.210029 -0.998551,-0.139419 z" />
    <path
       style="fill:#e2e8f0;stroke-width:0.264583;fill-opacity:1"
       id="path772"
       d="m 95.773757,26.662586 c -0.206197,1.494197 -0.299675,3.024076 -0.141949,4.528669 0.03245,0.309557 0.09958,0.61449 0.149376,0.921734 0,0.05694 0.805278,0.05694 0.805278,0 v 0 c 0.04979,-0.307244 0.116927,-0.612177 0.149379,-0.921734 0.157723,-1.504593 0.06425,-3.034472 -0.141952,-4.528669 0,-0.05799 -0.820132,-0.05799 -0.820132,0 z" />
    <path
       style="fill:#e2e8f0;stroke-width:0.264583;fill-opacity:1"
       id="path3111"
       d="m 47.023894,24.492403 c -0.151815,0.271954 -0.323051,0.533943 -0.455443,0.815864 -0.632069,1.345927 -1.09455,2.656382 -1.545222,4.084569 -0.54341,1.722069 -1.362726,4.708382 -1.732717,6.417222 -0.251293,1.160616 -0.425423,2.336602 -0.638135,3.504904 -0.130882,1.374367 -0.52274,3.605479 -0.111392,5.081047 0.103322,0.370637 0.288792,0.874877 0.667736,0.941565 1.726666,0.303874 2.863705,-1.209238 3.83339,-2.238983 0.70209,-0.745575 1.340963,-1.548247 2.011444,-2.322367 0.921872,-1.129369 2.527702,-3.176006 3.626969,-4.247346 0.383426,-0.373684 0.785903,-0.746059 1.257898,-0.998797 0.09725,-0.05207 0.227592,0.07825 0.281022,0.174758 0.139086,0.251216 0.225801,0.534514 0.268848,0.818417 0.0787,0.519041 0.06241,1.048088 0.09362,1.572133 -0.0013,1.708584 -0.231328,3.402605 -0.31165,5.106863 -0.014,0.297005 -0.01148,0.594558 -0.01722,0.891836 -0.01786,0.0771 1.072544,0.329753 1.090409,0.252648 v 0 c 0.159758,-0.298294 0.354444,-0.580369 0.479274,-0.894884 0.444442,-1.119812 0.67265,-2.237079 0.734076,-3.446719 0.03701,-0.728747 -0.03862,-1.45886 -0.05793,-2.18829 -0.290931,-1.116462 -0.456663,-2.912549 -1.742509,-3.547263 -1.393764,-0.68798 -2.839672,0.07145 -3.900051,0.87449 -1.634699,1.23798 -2.666841,2.741663 -3.939,4.32517 -0.558919,0.830911 -1.145024,1.644166 -1.676757,2.492732 -0.64216,1.024795 -1.596134,1.815476 -0.858626,2.990866 0.07935,0.126466 0.08646,-0.285879 0.124158,-0.430339 0.650452,-2.492328 0.453157,-1.75776 1.078611,-4.765495 0.960615,-5.398297 0.268611,-1.467004 1.200447,-6.873674 0.41566,-2.411743 0.873312,-4.821592 1.092231,-7.262016 0.02757,-0.307369 0.02939,-0.616504 0.04409,-0.924756 0.01445,-0.06347 -0.883118,-0.267622 -0.897554,-0.204155 z" />
    <path
       style="fill:#e2e8f0;stroke-width:0.264583;fill-opacity:1"
       id="path3317"
       d="m 100.56863,36.973033 c -0.0697,0.231053 -0.15306,0.458431 -0.20919,0.693158 -0.16746,0.700358 -0.28558,1.514573 -0.35524,2.225001 -0.06536,0.666586 -0.113439,1.601742 -0.09301,2.282777 0.0079,0.262358 0.04449,0.523063 0.06673,0.784595 0.03954,0.14927 0.06052,0.30474 0.11861,0.447813 0.14425,0.355275 0.62298,0.154032 0.87275,-0.03563 0.13216,-0.100362 0.0932,-0.318665 0.13253,-0.479883 0.0558,-0.228616 0.10184,-0.459499 0.15276,-0.68925 0.0685,-0.278485 0.13693,-0.556969 0.20539,-0.835451 0.22577,-0.958901 0.55409,-1.89452 1.04719,-2.750894 0.29453,-0.511514 0.50591,-0.912064 1.0812,-1.129639 0.16964,-0.06416 0.36197,-0.02339 0.54296,-0.0351 0.1487,0.283051 0.4,0.50156 0.54583,0.784926 0.39896,0.775279 0.42307,1.278459 0.55984,2.172634 0.14729,0.962951 0.269,1.929656 0.41042,2.893483 0.0647,0.35828 0.12491,0.717405 0.19415,1.074838 0.0422,0.218054 0.0606,0.444058 0.14026,0.651391 0.13618,0.354473 0.84574,0.01582 1.10981,-0.257056 0.25538,-0.263914 0.29526,-0.672758 0.42912,-1.014743 0.17255,-0.440838 0.32657,-0.888709 0.48985,-1.333061 0.31904,-0.859602 0.65798,-1.82522 1.04136,-2.663256 0.14906,-0.325842 0.29786,-0.654674 0.49267,-0.95541 0.1421,-0.219369 0.4907,-0.725176 0.87973,-0.642626 0.0653,0.01386 0.0228,0.131652 0.0342,0.197477 0.0932,0.157494 0.21062,0.302938 0.27944,0.472478 0.23419,0.576905 0.41753,1.496628 0.52685,2.077016 0.22625,1.201168 0.38528,2.416712 0.5686,3.624942 0.0777,0.282583 0.15532,0.565166 0.23298,0.847746 0.004,0.07277 1.03276,0.02175 1.02915,-0.05102 v 0 c 0.0431,-0.302556 0.0862,-0.605113 0.12934,-0.907669 -0.0157,-0.379119 -0.015,-0.759267 -0.047,-1.137356 -0.074,-0.874652 -0.22391,-1.866226 -0.45196,-2.712752 -0.21878,-0.812115 -0.51971,-1.678829 -1.01771,-2.373029 -0.19479,-0.27154 -0.46582,-0.479288 -0.69873,-0.718929 -0.36366,-0.0786 -0.71901,-0.243996 -1.09097,-0.235807 -0.61672,0.01357 -1.24091,0.530706 -1.60912,0.951195 -0.95379,1.089229 -1.41629,2.513973 -1.81893,3.87114 -0.0397,0.198004 -0.50414,2.168668 -0.35055,2.548229 0.01,0.024 0.73536,0.96629 0.93001,0.410101 0.18757,-0.535961 0.1586,-1.363948 0.17633,-1.877107 -0.0412,-0.491985 -0.0524,-0.987401 -0.12356,-1.475957 -0.15977,-1.097143 -0.39622,-2.047597 -0.83599,-3.065098 -0.25502,-0.590044 -0.76233,-1.539486 -1.37712,-1.878565 -0.37019,-0.204168 -0.81874,-0.211093 -1.22811,-0.31664 -0.30768,0.08099 -0.63948,0.09864 -0.92303,0.242956 -0.61715,0.314111 -1.07384,0.90614 -1.42061,1.479757 -0.56629,0.936759 -0.87378,1.98371 -1.04615,3.056982 -0.0888,0.765371 -0.13651,0.903489 -0.11412,1.628518 0.005,0.158623 -0.0719,0.367329 0.0457,0.473898 0.0842,0.07629 0.6946,0.350174 0.8002,0.123926 0.062,-0.132802 0.0878,-0.279665 0.13163,-0.419497 0.0431,-0.253746 0.0962,-0.505989 0.12931,-0.761235 0.0773,-0.596294 0.1591,-1.669741 0.1872,-2.249022 0.0304,-0.627732 0.0541,-1.591718 0.0165,-2.236695 -0.0138,-0.236135 -0.0554,-0.469818 -0.0831,-0.704726 0.005,-0.05914 -0.83111,-0.133006 -0.83633,-0.07387 z" />
    <path
       style="fill:#e2e8f0;stroke-width:0.293404;fill-opacity:1"
       id="path3463"
       d="m 174.41617,32.382642 c 0.0197,0.298749 0.0214,0.599219 0.0591,0.896246 0.36514,2.865985 1.26152,5.805216 2.29218,8.49895 0.24156,0.631322 0.52189,1.24737 0.78284,1.871055 0.28052,0.420353 0.56103,0.840705 0.84155,1.261057 0.0248,0.07911 1.15296,-0.26824 1.12819,-0.347352 v 0 c -0.0591,-0.478983 -0.1183,-0.957966 -0.17746,-1.436949 -1.10212,-3.69792 -2.31611,-7.379993 -4.00761,-10.860493 -0.009,-0.06444 -0.92725,0.05305 -0.91888,0.117486 z" />
    <path
       style="fill:#e2e8f0;stroke-width:0.293404;fill-opacity:1"
       id="path3493"
       d="m 185.63874,32.137206 c -1.7443,2.131765 -3.19492,4.492494 -4.51643,6.900529 -0.2921,0.532257 -0.56069,1.076876 -0.84103,1.615315 -0.22257,0.449232 -0.4557,0.893461 -0.66768,1.347695 -0.10712,0.229657 -0.50937,1.089591 -0.55376,1.480533 -0.003,0.03153 0.0486,0.04547 0.0796,0.05313 0.27181,0.06699 0.54606,0.212488 0.82273,0.169234 0.13645,-0.02134 0.15973,-0.223546 0.23959,-0.335319 0.0361,-0.06795 0.76927,-1.257996 0.66172,-1.300491 -0.26935,-0.106422 -0.54776,-0.188694 -0.82165,-0.283042 -1.08054,1.243697 -1.83445,2.72516 -2.61377,4.161349 -0.28045,0.612092 -0.56049,1.224377 -0.84137,1.836278 -1.04141,2.268689 -1.31459,2.747369 -2.20043,5.144603 -0.4562,1.234547 -1.33144,3.93614 -1.68886,5.229619 -0.19678,0.712168 -0.34675,1.436247 -0.52014,2.154372 -0.09,0.542748 -0.21037,1.081387 -0.26982,1.628245 -0.037,0.340078 -0.0495,0.685302 -0.0187,1.025972 0.0146,0.160906 0.0114,0.381341 0.15357,0.460127 1.0758,0.59593 0.93002,0.173441 1.02835,-0.469179 0.0114,-0.03244 -0.45135,-0.191278 -0.46268,-0.158835 v 0 c -0.31618,0.311394 -0.71085,0.522581 0.42062,0.655193 0.1088,0.01274 0.13232,-0.17513 0.17804,-0.27381 0.23203,-0.500773 0.79909,-2.069799 0.91762,-2.3885 2.04375,-5.641811 -0.68699,1.940468 1.59172,-4.552414 0.91576,-2.609328 1.02557,-2.699428 1.88653,-5.363347 0.26959,-0.834156 0.49703,-1.681254 0.76231,-2.51677 0.19756,-0.622223 0.41735,-1.23729 0.62601,-1.855936 0.32658,-0.970313 0.50576,-1.595116 0.90155,-2.491787 0.23933,-0.542185 0.56333,-1.040324 0.82146,-1.572703 0.0435,-0.08988 0.0786,-0.183605 0.11786,-0.275407 -0.23205,-0.164492 -0.45517,-0.342123 -0.69614,-0.493475 -0.0396,-0.0249 -0.16258,0.12161 -0.21207,0.188662 -0.25639,0.347412 -0.43214,0.749513 -0.628,1.130606 -0.0498,0.137097 -0.21256,0.279674 -0.14946,0.41129 0.14207,0.296404 0.49895,0.783363 0.83339,0.507905 0.3533,-0.290991 0.81725,-0.965312 1.02535,-1.268757 0.2853,-0.416004 0.55045,-0.845246 0.82569,-1.267869 0.32722,-0.514024 0.66317,-1.022689 0.98168,-1.542072 1.42949,-2.33104 2.73266,-4.751545 3.68136,-7.317554 0.0266,-0.05994 -0.82818,-0.433326 -0.85481,-0.373386 z" />
  </g>
</svg>
