<?xml version="1.0" encoding="UTF-8" standalone="no"?>
<!-- Created with Inkscape (http://www.inkscape.org/) -->

<svg
   width="84.867027mm"
   height="28.495193mm"
   viewBox="0 0 84.867027 28.495193"
   version="1.1"
   id="svg4350"
   inkscape:version="1.2.1 (9c6d41e, 2022-07-14)"
   sodipodi:docname="albums.svg"
   xmlns:inkscape="http://www.inkscape.org/namespaces/inkscape"
   xmlns:sodipodi="http://sodipodi.sourceforge.net/DTD/sodipodi-0.dtd"
   xmlns="http://www.w3.org/2000/svg"
   xmlns:svg="http://www.w3.org/2000/svg">
  <sodipodi:namedview
     id="namedview4352"
     pagecolor="#ffffff"
     bordercolor="#000000"
     borderopacity="0.25"
     inkscape:showpageshadow="2"
     inkscape:pageopacity="0.0"
     inkscape:pagecheckerboard="0"
     inkscape:deskcolor="#d1d1d1"
     inkscape:document-units="mm"
     showgrid="false"
     inkscape:zoom="0.67533597"
     inkscape:cx="77.739085"
     inkscape:cy="258.38991"
     inkscape:window-width="1512"
     inkscape:window-height="917"
     inkscape:window-x="0"
     inkscape:window-y="65"
     inkscape:window-maximized="0"
     inkscape:current-layer="layer1" />
  <defs
     id="defs4347" />
  <g
     inkscape:label="Layer 1"
     inkscape:groupmode="layer"
     id="layer1"
     transform="translate(-15.941749,-27.281116)">
    <path
       style="fill:#e2e8f0;fill-opacity:1;stroke-width:0.264583"
       id="path2277"
       d="m 26.965407,39.11681 c -0.228698,-0.195115 -0.419701,-0.446035 -0.686094,-0.585343 -2.918626,-1.526294 -5.740291,0.731946 -7.405526,3.002087 -0.678727,0.925282 -1.14418,1.989507 -1.71627,2.984261 -0.344069,1.06739 -0.821957,2.100578 -1.032213,3.202168 -0.410544,2.150946 -0.428091,6.256054 3.194849,5.116345 2.177573,-0.685022 4.060234,-3.332892 5.406212,-4.858773 1.940293,-2.854333 3.733726,-5.938915 4.139375,-9.438331 0.04809,-0.414811 0.296476,-1.186434 -0.11665,-1.247322 -0.464473,-0.06846 -0.73842,0.652613 -0.878922,1.10059 -0.283686,0.904512 -0.234243,1.881386 -0.351364,2.82208 -0.123539,2.813261 -0.277992,4.768866 -0.121306,7.595666 0.05952,1.073827 0.232585,2.138339 0.34888,3.207507 0.003,0.06552 0.929674,0.02262 0.926639,-0.04291 v 0 c -0.0038,-3.567457 -0.08718,-7.132797 -0.08182,-10.700332 0.0077,-0.934834 0.155982,-1.879121 0.02312,-2.804499 -0.06269,-0.436708 -0.161796,-1.100876 -0.595448,-1.182047 -0.345405,-0.06466 -0.04964,0.704233 -0.131405,1.04599 -0.194236,0.811824 -0.40354,1.623595 -0.69451,2.405976 -1.20894,3.250681 -1.584129,3.510711 -3.458673,6.570249 -1.514359,1.849618 -2.539487,3.516633 -4.632381,4.720693 -0.403114,0.231916 -0.979426,0.541208 -1.366194,0.282956 -0.500907,-0.334462 -0.63232,-1.066419 -0.702972,-1.664567 -0.246181,-2.084237 0.549159,-3.724305 1.174226,-5.652747 0.512914,-0.947451 0.934321,-1.950492 1.538738,-2.84236 1.301893,-1.921055 3.54458,-4.092205 6.082876,-3.170833 0.267859,0.09723 0.483365,0.301932 0.725049,0.452898 0.02259,0.02911 0.434353,-0.290285 0.411768,-0.319402 z" />
    <path
       style="fill:#e2e8f0;fill-opacity:1;stroke-width:0.264583"
       id="path2279"
       d="m 33.282961,27.305011 c -0.09106,1.341726 -0.168283,2.332215 -0.191593,3.775353 -0.06924,4.28649 0.09931,8.591338 0.353436,12.869261 0.08742,1.471578 0.212392,2.940683 0.318585,4.411025 0.18275,1.520619 0.448146,4.423661 0.902512,6.059577 0.12441,0.447927 0.379124,0.848958 0.568687,1.273437 0.01013,0.04519 0.649121,-0.09805 0.638993,-0.143234 v 0 c -0.214286,-2.423581 -0.423735,-4.847852 -0.555792,-7.277725 -0.437356,-6.994461 -0.770255,-14.004104 -1.584277,-20.967694 0,-0.03186 -0.450551,-0.03186 -0.450551,0 z" />
    <path
       style="fill:#e2e8f0;fill-opacity:1;stroke-width:0.264583"
       id="path2309"
       d="m 40.912933,30.578221 c -0.04095,0.568209 -0.107207,1.135158 -0.122846,1.704624 -0.07168,2.61036 0.0081,4.840141 0.164767,7.479831 0.150865,2.542413 0.445727,5.913742 0.755316,8.461642 0.128784,1.059879 0.30484,2.113476 0.457258,3.170214 -0.467172,-1.725613 0.182857,2.7647 0.905222,2.341999 1.010343,-0.591217 1.416293,-2.702438 1.7355,-3.48638 1.136227,-2.790457 1.319019,-2.883458 2.85473,-5.50109 0.603951,-0.758825 1.910397,-2.778143 3.11604,-3.162339 0.186121,-0.05931 0.306095,0.306054 0.303395,0.501377 -0.007,0.53625 -0.145635,1.071404 -0.332044,1.574268 -0.826799,2.230395 -1.530136,2.963278 -2.906054,4.963271 -2.590501,2.883543 -1.32148,1.548204 -3.785941,4.02598 -0.03937,0.04368 0.578442,0.600532 0.617818,0.556847 v 0 c 3.083039,-2.175163 1.606661,-0.884814 4.350218,-3.959524 1.192898,-1.927886 2.300163,-3.256891 2.679443,-5.543775 0.1678,-1.011737 0.27346,-3.066849 -1.568021,-2.805853 -0.689586,0.09774 -1.254141,0.642966 -1.768816,1.11221 -0.708684,0.646129 -1.239499,1.463733 -1.859249,2.195603 -1.493898,2.635268 -1.850106,2.920142 -2.729624,5.801719 -0.575183,1.884485 -0.650039,1.929559 -0.264557,3.440782 0.01685,0.06611 0.0047,-0.136379 0.007,-0.20457 -0.02686,-0.654765 -0.05372,-1.309526 -0.08058,-1.964291 -0.291468,-4.248192 -0.153077,-2.483474 -0.563295,-7.24041 -0.339617,-3.938259 -0.678011,-7.876138 -1.235245,-11.791095 -0.07959,-0.5592 -0.187362,-1.114026 -0.281043,-1.67104 0,-0.03178 -0.449387,-0.03178 -0.449387,0 z" />
    <path
       style="fill:#e2e8f0;fill-opacity:1;stroke-width:0.264583"
       id="path2315"
       d="m 57.128505,40.128148 c -0.57613,2.55221 -1.0201,5.232275 -0.99713,7.854796 0.007,0.785466 0.0374,1.577083 0.17921,2.349664 0.10859,0.59137 0.37779,1.14163 0.56668,1.712444 0.33479,0.256503 0.58416,0.733378 1.00436,0.769509 1.39549,0.119999 2.44189,-1.326052 3.06209,-2.248051 0.99418,-1.477962 1.7343,-3.332932 2.26265,-5.018561 0.24876,-0.793631 0.40487,-1.613379 0.6073,-2.420067 0.0849,-0.681754 0.39255,-2.267151 0.18474,-3.097516 -0.0294,-0.117306 -0.21155,-0.302985 -0.29312,-0.213725 -0.73369,0.802772 -0.66589,2.304163 -0.68893,3.204535 -0.0232,0.904301 0.0232,1.809046 0.0348,2.713569 0.22939,2.426938 0.24028,3.348075 0.75524,5.707735 0.20324,0.931277 0.68254,2.759321 1.2472,3.674051 0.16454,0.266558 0.44727,0.438695 0.67091,0.65804 0.01,0.01865 0.27338,-0.118451 0.26369,-0.137096 v 0 c -0.22223,-0.724876 -0.4834,-1.438672 -0.67146,-2.173155 -0.65132,-2.543895 -0.9722,-5.157976 -1.24151,-7.76473 -0.0618,-0.89014 -0.12888,-1.779923 -0.18528,-2.670418 -0.043,-0.678366 -0.0178,-1.362991 -0.11275,-2.036051 -0.042,-0.297881 -0.18315,-0.573635 -0.29474,-0.853006 -0.0196,-0.04912 -0.0844,-0.177633 -0.0963,-0.126106 -0.0824,0.35514 -0.067,0.72671 -0.12653,1.08639 -0.10129,0.61165 -0.23714,1.217078 -0.35571,1.825617 -0.21879,0.777129 -0.40873,1.562965 -0.65636,2.331389 -0.52518,1.629677 -1.16928,3.364119 -2.02494,4.858263 -0.32875,0.574064 -0.71852,1.115074 -1.14347,1.622076 -0.21521,0.256768 -0.42995,0.624385 -0.76372,0.653397 -0.29068,0.02527 -0.46633,-0.350809 -0.6995,-0.526214 -0.13231,-0.526503 -0.32648,-1.041226 -0.39692,-1.57951 -0.0981,-0.749916 -0.10398,-1.510133 -0.10637,-2.266439 -0.008,-2.615854 0.31543,-5.22111 0.44877,-7.830392 0.004,-0.03061 -0.42859,-0.09104 -0.43287,-0.06044 z" />
    <path
       style="fill:#e2e8f0;fill-opacity:1;stroke-width:0.264583"
       id="path2327"
       d="m 70.513075,41.167756 c -0.0121,0.292177 -0.0427,0.584174 -0.0362,0.876528 0.0229,1.039217 0.15972,2.258663 0.30391,3.271303 0.14357,1.008319 0.4293,2.615263 0.6703,3.620267 0.10439,0.435356 0.24525,0.861155 0.36787,1.291733 0.10458,0.214606 0.10039,0.536681 0.31373,0.643816 0.19295,0.0969 0.51924,0.01588 0.6243,-0.172757 0.21794,-0.391343 0.17297,-0.880822 0.21101,-1.327139 0.0558,-0.654334 0.0591,-1.312257 0.0699,-1.968871 0.0242,-1.473779 0.002,-2.947958 0.006,-4.421931 0.081,-0.580244 0.0945,-1.174014 0.24306,-1.740733 0.11345,-0.432676 0.36842,-1.426287 1.09739,-0.935659 0.2768,0.186298 0.42834,0.513622 0.61116,0.792731 0.95861,1.463479 1.0453,1.810758 1.81858,3.458168 0.52851,1.095867 0.8777,2.263399 1.34408,3.383904 0.11786,0.283176 0.20894,0.587613 0.39632,0.830456 0.0687,0.0891 0.24915,0.186399 0.32222,0.100806 0.49872,-0.58416 0.44038,-1.610485 0.49248,-2.271358 0.2877,-1.405911 0.38646,-2.221275 0.94596,-3.567512 0.20889,-0.502616 0.44023,-1.005782 0.76487,-1.442665 0.28395,-0.382111 0.91424,-1.110879 1.51204,-0.648647 0.34871,0.26964 0.5521,0.687324 0.82816,1.030986 1.06418,2.033765 1.67481,4.252624 2.19366,6.47605 0.32419,1.1253 0.42588,2.295864 0.68109,3.434871 0.0627,0.279683 0.161,0.550159 0.2415,0.825236 -1.6e-4,0.02954 0.41752,0.03185 0.41768,0.0024 v 0 c 0.0843,-0.303033 0.22692,-0.595633 0.25292,-0.909098 0.078,-0.940961 -0.18071,-2.795032 -0.34321,-3.615219 -0.3161,-1.595506 -0.79836,-3.324645 -1.50379,-4.796298 -0.33504,-0.698952 -0.79583,-1.330338 -1.19375,-1.995505 -0.45796,-0.391941 -0.81309,-0.954802 -1.37389,-1.175825 -0.45325,-0.178638 -1.00447,-0.112995 -1.46038,0.05878 -0.45518,0.1715 -0.82804,0.54035 -1.13382,0.918641 -0.76595,0.947579 -1.22042,2.359837 -1.44631,3.520967 -0.1203,0.61836 -0.12247,1.253939 -0.18371,1.880909 0.0325,0.445783 -0.006,0.902663 0.0976,1.337353 0.0565,0.236074 0.22561,0.432477 0.37236,0.62584 0.0301,0.03966 0.1404,0.09994 0.14069,0.05015 0.002,-0.305543 -0.0699,-0.608176 -0.1358,-0.906528 -0.3838,-1.737061 -0.49157,-1.798709 -1.17628,-3.577722 -0.62652,-1.199042 -1.23757,-2.644053 -2.26859,-3.592955 -0.64758,-0.595997 -1.6633,-1.279567 -2.55783,-0.603078 -0.88469,0.669052 -0.95338,2.14076 -1.13984,3.042431 -0.0102,0.734758 -0.0416,1.469527 -0.0306,2.204275 0.0186,1.242748 0.1235,2.931504 0.26825,4.187365 0.0444,0.385217 0.0249,0.795255 0.18479,1.148537 0.065,0.143741 0.32841,0.326864 0.42719,0.203835 0.13522,-0.168415 -0.0493,-0.429138 -0.074,-0.643707 -0.44028,-2.983267 -0.98636,-5.958649 -1.74609,-8.878094 0.002,-0.0295 -0.41527,-0.05644 -0.41718,-0.02694 z" />
    <path
       style="fill:#e2e8f0;fill-opacity:1;stroke-width:0.264583"
       id="path2345"
       d="m 97.733025,37.867939 c -0.29037,0.03945 -0.58765,0.04406 -0.87112,0.118335 -0.89215,0.233778 -1.85565,0.757518 -2.60015,1.244598 -1.03628,0.677976 -2.17681,1.627661 -3.0304,2.528353 -0.36869,0.389027 -0.67762,0.830617 -1.01642,1.245925 -0.1252,0.348274 -0.36482,0.674883 -0.3756,1.044819 -0.0242,0.832231 0.71388,1.106868 1.39143,1.199094 1.20251,0.163684 2.59025,-0.157253 3.76658,-0.265279 0.67628,-0.06211 1.35581,-0.08155 2.03372,-0.122328 0.7755,0.05799 1.95353,0.01662 2.65436,0.527452 0.22731,0.165688 0.422025,0.458597 0.406575,0.739458 -0.0221,0.400865 -0.270955,0.767847 -0.507355,1.092329 -0.90928,1.248045 -1.93252,1.862196 -3.1604,2.795583 -3.09992,1.775621 -1.55543,0.936201 -4.62997,2.524638 -0.0722,0.05308 0.67852,1.074192 0.75072,1.021109 v 0 c 3.29667,-1.532758 1.68434,-0.644128 4.82558,-2.686497 1.23195,-1.110541 2.37207,-1.883418 3.084925,-3.429894 0.45466,-0.986346 0.57669,-1.979862 -0.28271,-2.778546 -0.969425,-0.900954 -2.301635,-0.760442 -3.488825,-0.869588 -0.69686,0.0642 -1.39789,0.09305 -2.0906,0.192588 -1.03402,0.148574 -2.03865,0.471853 -3.07439,0.607975 -0.26828,0.03526 -0.55052,0.106276 -0.81108,0.0333 -0.11805,-0.03307 -0.22424,-0.195958 -0.19138,-0.314068 0.0805,-0.289274 0.3261,-0.504256 0.48916,-0.756386 0.35811,-0.364519 0.70448,-0.740952 1.07432,-1.09356 0.89455,-0.852852 1.89369,-1.707059 2.86921,-2.464866 0.42578,-0.330753 0.85251,-0.662583 1.30584,-0.954431 0.42261,-0.272066 0.91472,-0.424934 1.32288,-0.723556 0.0323,0.01095 0.18739,-0.445588 0.1551,-0.456555 z" />
  </g>
</svg>
