<?xml version="1.0" encoding="UTF-8" standalone="no"?>
<!-- Created with Inkscape (http://www.inkscape.org/) -->

<svg
   width="58.993744mm"
   height="27.149586mm"
   viewBox="0 0 58.993744 27.149586"
   version="1.1"
   id="svg3032"
   sodipodi:docname="books.svg"
   inkscape:version="1.2.1 (9c6d41e, 2022-07-14)"
   xmlns:inkscape="http://www.inkscape.org/namespaces/inkscape"
   xmlns:sodipodi="http://sodipodi.sourceforge.net/DTD/sodipodi-0.dtd"
   xmlns="http://www.w3.org/2000/svg"
   xmlns:svg="http://www.w3.org/2000/svg">
  <sodipodi:namedview
     id="namedview3034"
     pagecolor="#ffffff"
     bordercolor="#000000"
     borderopacity="0.25"
     inkscape:showpageshadow="2"
     inkscape:pageopacity="0.0"
     inkscape:pagecheckerboard="0"
     inkscape:deskcolor="#d1d1d1"
     inkscape:document-units="mm"
     showgrid="false"
     inkscape:zoom="0.78127806"
     inkscape:cx="295.0294"
     inkscape:cy="7.6797242"
     inkscape:window-width="2560"
     inkscape:window-height="1412"
     inkscape:window-x="1920"
     inkscape:window-y="28"
     inkscape:window-maximized="0"
     inkscape:current-layer="layer1" />
  <defs
     id="defs3029" />
  <g
     inkscape:label="Layer 1"
     inkscape:groupmode="layer"
     id="layer1"
     transform="translate(-21.639959,-56.865344)">
    <path
       style="fill:#e2e8f0;fill-opacity:1;stroke-width:0.264583"
       id="path2141"
       d="m 21.658436,56.907175 c -0.0057,0.345146 -0.02323,0.690295 -0.01725,1.035437 0.05408,3.119253 0.30549,6.239288 0.573307,9.345397 0.37738,4.376862 0.400868,4.350268 0.877435,8.61778 0.18683,1.420218 0.498044,3.988512 0.782201,5.538674 0.06155,0.335783 -0.01765,0.774957 0.243574,0.994746 0.164839,0.138703 0.480086,-0.116652 0.564385,-0.314907 0.21411,-0.503552 0.176533,-1.080058 0.258781,-1.621025 0.137192,-0.902343 0.266348,-1.80589 0.399522,-2.708834 0.371004,-2.308926 0.566617,-3.950483 1.197761,-6.204836 0.236067,-0.843193 0.486508,-1.689952 0.858682,-2.482538 0.173786,-0.370096 1.001075,-2.144929 1.991844,-1.793097 0.316444,0.112371 0.389128,0.547386 0.583692,0.821079 0.177287,0.576424 0.466063,1.129803 0.531858,1.729274 0.209439,1.908257 -0.203742,3.737637 -0.814144,5.533314 -0.651274,1.915916 -1.558459,3.662275 -2.729352,5.307345 -0.441482,0.620268 -0.982456,1.163331 -1.473684,1.744994 -0.388629,0.339103 -0.777253,0.678203 -1.165878,1.017307 -0.03859,0.03818 0.501417,0.583917 0.540006,0.545732 v 0 c 0.504734,-0.3116 1.009471,-0.623202 1.514206,-0.934805 0.571343,-0.599024 1.208563,-1.141508 1.714026,-1.797079 1.29,-1.673082 2.304046,-3.616055 2.906657,-5.642927 0.584914,-1.967349 0.869294,-4.027535 0.415237,-6.059482 -0.15529,-0.694931 -0.578064,-1.301547 -0.867095,-1.952321 C 30.045,67.309382 29.62902,66.777731 29.04659,66.67534 c -1.278824,-0.224817 -2.286915,1.272172 -2.740811,2.094785 -0.447103,0.810305 -0.756549,1.694413 -1.026975,2.579492 -0.761603,2.492666 -0.79786,3.786063 -1.102632,6.359583 -0.0064,0.226351 -0.20292,3.682897 0.05221,4.4065 0.06904,0.195821 0.410955,0.444664 0.550704,0.2911 0.233633,-0.256725 0.114534,-0.686847 0.12519,-1.033801 0.05514,-1.794983 -0.116639,-3.850537 -0.218098,-5.60261 -0.126225,-1.390462 -0.233426,-2.782784 -0.378669,-4.171389 -0.516345,-4.936466 -1.252744,-9.845927 -2.192605,-14.719199 -0.0019,-0.03228 -0.458396,-0.0049 -0.456461,0.02737 z" />
    <path
       style="fill:#e2e8f0;fill-opacity:1;stroke-width:0.264583"
       id="path2143"
       d="m 40.837242,69.941761 c -0.157657,-0.09528 -0.3024,-0.216268 -0.472974,-0.285829 -0.259785,-0.105942 -0.527535,-0.222973 -0.807766,-0.236466 -1.18386,-0.05701 -2.023687,0.192659 -2.991993,0.932394 -0.587957,0.449164 -1.158003,0.956699 -1.563494,1.575586 -0.50309,0.767858 -0.74523,1.677929 -1.117848,2.516894 -0.09067,0.933434 -0.338054,1.864799 -0.272026,2.800299 0.170503,2.415797 1.494023,4.980451 4.369678,4.439298 2.288588,-0.430672 2.869211,-1.568846 4.333142,-3.145139 0.407535,-0.827439 0.93608,-1.605594 1.222603,-2.482318 0.525653,-1.608428 0.606224,-3.349995 0.20642,-4.993222 -0.147677,-0.606967 -0.377174,-1.212866 -0.738722,-1.722278 -0.275535,-0.388221 -0.744056,-0.594072 -1.116084,-0.891109 -0.01839,-0.02519 -0.374721,0.234733 -0.356341,0.259929 v 0 c 0.557631,0.893826 0.902375,1.304343 1.129723,2.439485 0.281872,1.407377 0.225039,3.114281 -0.197347,4.481634 -0.246294,0.797309 -0.71241,1.509279 -1.068613,2.263918 -0.839568,0.986676 -1.801302,2.453923 -3.151944,2.918976 -0.532712,0.183422 -1.173099,0.288017 -1.689087,0.06178 -0.552469,-0.242229 -0.952561,-0.796136 -1.219544,-1.337074 -0.837184,-1.696226 -0.464077,-2.91832 -0.307864,-4.70843 0.278545,-0.757997 0.438282,-1.570958 0.835636,-2.273991 0.587862,-1.040095 2.119175,-2.402083 3.408704,-2.517531 0.423542,-0.03792 0.843471,0.133855 1.233712,0.263014 0.02545,0.02347 0.357473,-0.336341 0.332029,-0.35982 z" />
    <path
       style="fill:#e2e8f0;fill-opacity:1;stroke-width:0.264583"
       id="path2171"
       d="m 52.617252,69.947928 c -0.328179,-0.120237 -1.122099,-0.439986 -1.43208,-0.401489 -1.523603,0.18922 -2.319163,0.76512 -3.311176,1.967971 -0.544171,0.659831 -1.071144,1.367999 -1.370393,2.169215 -0.318556,0.852917 -0.297492,1.796463 -0.446238,2.694694 0.202245,0.855343 0.230322,1.771783 0.606734,2.566027 1.143335,2.412469 3.591256,3.35193 6.047872,2.25652 1.809068,-0.806664 2.076017,-1.964094 2.932838,-3.566956 0.107751,-0.788395 0.348223,-1.569855 0.323252,-2.36519 -0.04745,-1.511255 -0.614455,-3.026306 -1.533192,-4.220114 -0.38777,-0.503868 -0.934701,-0.862161 -1.402051,-1.293241 -0.04243,-0.05226 -0.781526,0.547809 -0.739095,0.600072 v 0 c 0.388165,0.380328 0.83792,0.706623 1.164495,1.140987 0.771433,1.026046 1.343536,2.367372 1.425893,3.66019 0.04395,0.68989 -0.148424,1.374584 -0.222634,2.061877 -0.786455,1.594405 -0.76676,2.159246 -2.370429,3.08892 -1.819624,1.054867 -3.624672,0.23192 -4.512894,-1.588691 -0.329004,-0.67437 -0.363374,-1.456033 -0.54506,-2.18405 0.116776,-0.77487 0.09578,-1.583481 0.350329,-2.324608 0.420817,-1.225249 1.450155,-2.538222 2.413852,-3.404889 0.26879,-0.241728 0.566232,-0.485058 0.914008,-0.5837 0.105956,-0.03005 1.242209,0.140433 1.450978,0.170159 0.03137,0.01802 0.286364,-0.425672 0.254991,-0.443704 z" />
    <path
       style="fill:#e2e8f0;fill-opacity:1;stroke-width:0.264583"
       id="path2175"
       d="m 57.502762,57.116176 c -0.05498,0.517285 -0.137062,1.032405 -0.164934,1.551857 -0.109299,2.037189 -0.05859,4.137191 0.04098,6.167659 0.180847,3.688027 0.365896,6.06435 0.908226,9.76577 0.232053,1.583759 0.555487,3.152775 0.833228,4.729163 0.343594,1.225915 0.687184,2.451827 1.030775,3.677743 0.01431,0.0881 1.260223,-0.114242 1.245917,-0.202343 v 0 c -0.135566,-1.243357 -0.271128,-2.486713 -0.406693,-3.730072 -0.484152,-3.253317 -0.981545,-6.504689 -1.453993,-9.759728 -0.220676,-1.520391 -0.45285,-3.039396 -0.642276,-4.563996 -0.251616,-2.025142 -0.40377,-4.061499 -0.629198,-6.089724 -0.05637,-0.507184 -0.124489,-1.012993 -0.186735,-1.51949 0.0019,-0.04068 -0.573399,-0.06752 -0.575296,-0.02684 z" />
    <path
       style="fill:#e2e8f0;fill-opacity:1;stroke-width:0.264583"
       id="path2177"
       d="m 67.179028,62.091524 c -2.216396,2.208914 -4.366822,4.489222 -6.39284,6.87502 -0.471882,0.555675 -0.923507,1.128239 -1.385261,1.692357 -0.322527,0.431109 -0.661802,0.850186 -0.967583,1.293331 -0.01127,0.01635 -0.850419,1.018961 -0.407485,1.329843 0.566428,0.397561 1.749731,0.22497 2.318631,0.251931 0.507724,0.02405 1.012191,0.09446 1.518289,0.141687 2.120604,0.246272 4.13227,0.94451 6.025327,1.915975 0.148987,0.07646 2.363915,1.391097 2.693324,1.586262 0.02574,0.0287 0.431588,-0.335502 0.405833,-0.364199 v 0 c -0.303966,-0.352375 -0.557339,-0.755708 -0.911902,-1.057122 -0.477127,-0.405608 -1.015246,-0.738293 -1.561121,-1.045196 -1.975759,-1.110811 -4.123509,-1.781956 -6.384684,-1.955591 -0.766519,0.0041 -2.388475,-0.07645 -3.262866,0.181451 -0.13993,0.04127 -0.206758,0.208693 -0.328168,0.289586 -0.02162,0.01439 -0.0077,-0.05803 0.0096,-0.07736 0.573971,-0.638879 1.263559,-1.169316 1.772542,-1.869917 1.589468,-1.78517 3.180126,-3.56785 4.692303,-5.419801 0.737113,-0.902738 1.562825,-1.920792 2.198897,-2.918048 0.135786,-0.21289 0.233632,-0.447722 0.350448,-0.671583 0.01262,-0.0271 -0.370689,-0.205733 -0.38332,-0.178628 z" />
    <path
       style="fill:#e2e8f0;fill-opacity:1;stroke-width:0.264583"
       id="path2181"
       d="m 77.473907,67.255875 c -0.237622,0.03263 -0.479913,0.04076 -0.712869,0.09787 -1.717932,0.421161 -3.556336,1.56542 -4.739791,2.868906 -0.300284,0.33074 -0.524326,0.723405 -0.786491,1.085106 -0.09859,0.329314 -0.291144,0.644218 -0.295778,0.987944 -0.02719,2.016789 3.579124,1.552625 4.674597,1.581131 0.540359,0.01408 1.078497,0.07474 1.617747,0.112107 0.672637,0.213164 2.027241,0.439092 2.441937,1.239253 0.41713,0.804857 -0.413314,1.850678 -0.836945,2.323253 -1.108914,1.237033 -1.997973,1.658948 -3.394739,2.544395 -2.214092,1.090914 -1.175381,0.622631 -3.10233,1.435087 -0.04105,0.02085 0.25367,0.601352 0.294717,0.580511 v 0 c 2.372368,-0.338613 1.147337,-0.01119 3.638293,-1.110834 1.481532,-1.021287 2.489095,-1.508263 3.527732,-3.026831 0.67345,-0.984639 1.168411,-2.170192 0.554559,-3.341055 -0.567846,-1.083112 -1.834957,-1.276437 -2.831602,-1.62633 -0.726456,-0.01871 -1.452769,-0.06812 -2.179365,-0.05612 -1.37443,0.0227 -1.487131,0.228584 -2.829171,0.132601 -0.315533,-0.02257 -0.926332,-0.0629 -0.871033,-0.582266 0.0287,-0.269547 0.208862,-0.500295 0.313296,-0.750443 0.254245,-0.311269 0.482282,-0.645933 0.762737,-0.933813 0.336328,-0.345233 0.705655,-0.658021 1.081721,-0.959479 1.150231,-0.922036 2.434453,-1.658409 3.833372,-2.128266 0.03343,-0.01135 -0.127166,-0.48409 -0.160594,-0.472734 z" />
  </g>
</svg>
