<?xml version="1.0" encoding="UTF-8" standalone="no"?>
<!-- Created with Inkscape (http://www.inkscape.org/) -->

<svg
   width="110.38712mm"
   height="41.737019mm"
   viewBox="0 0 110.38712 41.737019"
   version="1.1"
   id="svg995"
   inkscape:version="1.2.1 (9c6d41e, 2022-07-14)"
   sodipodi:docname="miscellany.svg"
   xmlns:inkscape="http://www.inkscape.org/namespaces/inkscape"
   xmlns:sodipodi="http://sodipodi.sourceforge.net/DTD/sodipodi-0.dtd"
   xmlns="http://www.w3.org/2000/svg"
   xmlns:svg="http://www.w3.org/2000/svg">
  <sodipodi:namedview
     id="namedview997"
     pagecolor="#ffffff"
     bordercolor="#000000"
     borderopacity="0.25"
     inkscape:showpageshadow="2"
     inkscape:pageopacity="0.0"
     inkscape:pagecheckerboard="0"
     inkscape:deskcolor="#d1d1d1"
     inkscape:document-units="mm"
     showgrid="false"
     inkscape:zoom="0.914906"
     inkscape:cx="284.7287"
     inkscape:cy="388.018"
     inkscape:window-width="2560"
     inkscape:window-height="1412"
     inkscape:window-x="1920"
     inkscape:window-y="28"
     inkscape:window-maximized="0"
     inkscape:current-layer="layer1" />
  <defs
     id="defs992" />
  <g
     inkscape:label="Layer 1"
     inkscape:groupmode="layer"
     id="layer1"
     transform="translate(-29.828836,-45.645605)">
    <path
       style="fill:#e2e8f0;fill-opacity:1;stroke-width:0.290212"
       id="path457"
       d="m 30.354003,52.63783 c -0.397728,3.48162 -0.606532,7.005 -0.495562,10.51365 0.01706,0.53918 0.07298,1.07618 0.109463,1.61428 0.168469,0.10431 0.347015,0.43373 0.505409,0.31283 0.918563,-0.70117 1.472317,-2.90718 1.768366,-3.7925 0.325362,-0.97297 0.610905,-1.96122 0.954748,-2.92694 1.065652,-2.99302 0.983638,-2.64351 2.295497,-5.26188 0.336526,-0.4444 0.531633,-1.07525 1.009578,-1.3332 0.230066,-0.12416 0.503178,0.21344 0.658445,0.43296 0.349296,0.49383 0.59898,1.06624 0.809608,1.64257 0.312412,0.8548 0.537827,1.74428 0.752862,2.63259 0.401328,1.65789 0.76472,3.89982 1.060534,5.60387 -0.01445,-1.61415 0.06944,2.52171 0.718925,2.18259 1.014575,-0.52973 1.085029,-2.23926 1.323288,-3.09722 0.659138,-2.37356 0.998506,-3.19684 1.826312,-5.5293 0.354322,-0.75774 1.084149,-2.74943 1.948661,-3.36881 0.147591,-0.10579 0.409358,-0.0143 0.518012,0.13581 0.269801,0.37266 0.396368,0.84692 0.520561,1.29869 0.532585,1.93736 0.664486,3.62441 0.922455,5.64 0.396914,4.3614 0.177287,2.24754 0.649703,6.34266 0.0031,0.0615 0.818204,0.0144 0.815081,-0.0471 v 0 c -0.02819,-4.17743 0.07747,-2.02625 -0.353698,-6.45137 -0.299089,-1.80228 -0.555234,-4.13832 -1.300541,-5.85581 -0.258323,-0.59529 -0.541747,-1.26587 -1.068755,-1.6042 -1.048028,-0.67282 -2.05433,0.65432 -2.481302,1.32105 -0.453297,0.70784 -0.74633,1.51832 -1.119496,2.27748 -0.870718,2.54815 -1.138737,3.06433 -1.681133,5.6925 -0.135836,0.6582 -0.276898,1.32377 -0.293384,1.99749 -0.0083,0.33688 0.148901,0.65504 0.220445,0.98328 0.0197,0.0904 -0.04328,-0.17978 -0.0649,-0.26967 -0.05167,-0.59629 -0.103346,-1.1926 -0.15502,-1.7889 -0.30975,-2.21695 -0.427455,-3.55368 -1.041668,-5.75224 -0.2621,-0.93818 -0.541356,-1.88103 -0.957658,-2.75354 -0.502425,-1.053 -1.342429,-2.74 -2.863046,-2.13281 -0.558086,0.22284 -0.81608,0.92622 -1.22412,1.38933 -0.426886,0.78994 -0.911184,1.54765 -1.280657,2.36985 -0.919646,2.0465 -1.399358,3.81955 -1.990835,5.9825 -0.456644,1.66988 -0.700455,2.18291 -0.646908,3.7124 0.08375,-3.11875 0.217085,-6.23802 0.184366,-9.35891 -0.0067,-0.64124 -0.04051,-1.28185 -0.05603,-1.92291 -0.0064,-0.26372 -0.0065,-0.52757 -0.0097,-0.79137 0.0027,-0.0368 -0.485282,-0.0764 -0.487915,-0.0396 z" />
    <path
       style="fill:#e2e8f0;fill-opacity:1;stroke-width:0.290212"
       id="path463"
       d="m 53.380624,53.3019 c -0.133568,3.7628 -0.10375,7.54985 0.275498,11.29755 0.07552,0.74631 0.199192,1.48619 0.298788,2.22928 0.0049,0.0651 0.868517,-0.009 0.863591,-0.0743 v 0 c -0.207217,-4.48752 -0.475456,-8.97268 -0.794306,-13.45252 0,-0.0485 -0.643571,-0.0485 -0.643571,0 z" />
    <path
       style="fill:#e2e8f0;fill-opacity:1;stroke-width:0.290212"
       id="path471"
       d="m 53.228127,47.91891 c -0.02636,0.75273 -0.09354,0.38604 0.222686,1.09542 0,0.0153 0.20347,0.0153 0.20347,0 v 0 c 0.316228,-0.70938 0.24904,-0.34269 0.222683,-1.09542 0,-0.0489 -0.648839,-0.0489 -0.648839,0 z" />
    <path
       style="fill:#e2e8f0;fill-opacity:1;stroke-width:0.290212"
       id="path477"
       d="m 64.33836,51.20247 c -1.846473,1.47497 -3.576611,3.16827 -4.93272,5.17059 -0.242333,0.3578 -0.443389,0.74543 -0.665082,1.11815 -0.136906,0.45629 -0.530468,1.08371 0.08843,1.46898 0.620087,0.386 2.496236,0.0715 2.87354,0.0347 2.833293,-0.27633 1.124173,-0.24686 3.666344,-0.17922 0.444653,0.13703 0.942617,0.14756 1.333954,0.41109 0.747018,0.50305 0.574831,1.34031 0.266461,2.03913 -0.253205,0.57382 -0.612,1.09128 -0.977379,1.59167 -1.024783,1.40341 -1.753628,2.02195 -2.969885,3.21709 -0.424258,0.40784 -0.848517,0.81567 -1.272776,1.22352 -0.03051,0.032 0.395139,0.49207 0.425644,0.45998 v 0 c 0.536086,-0.33532 1.072174,-0.67063 1.608257,-1.00594 0.541446,-0.52793 1.118909,-1.01671 1.624339,-1.58379 0.867622,-0.97344 2.017099,-2.46321 2.410158,-3.79974 0.327954,-1.11513 0.267494,-2.20231 -0.681607,-2.95003 -0.433764,-0.34171 -1.01277,-0.39574 -1.519155,-0.59362 -0.7422,-9e-4 -1.48612,-0.0569 -2.226609,-0.003 -0.811486,0.0589 -2.481548,0.39543 -3.370535,0.60055 -0.302271,0.0698 -0.894849,0.31425 -0.873275,0.11167 0.02476,-0.23239 0.187439,-0.42293 0.281159,-0.63439 0.708674,-0.99814 0.874562,-1.26486 1.699496,-2.26657 1.150513,-1.39704 2.425766,-2.66168 3.655019,-3.97731 0.03007,-0.0334 -0.4137,-0.48698 -0.443775,-0.45352 z" />
    <path
       style="fill:#e2e8f0;fill-opacity:1;stroke-width:0.290212"
       id="path495"
       d="m 77.380937,53.99301 c 0.0074,-0.18378 0.04418,-0.36888 0.02223,-0.55135 -0.179724,-1.49489 -1.216,-2.65036 -2.749234,-2.10504 -0.470672,0.1674 -0.83037,0.57932 -1.245557,0.86899 -0.383388,0.49934 -0.827149,0.95229 -1.150161,1.49802 -0.367527,0.62093 -0.694507,1.28057 -0.907693,1.97875 -0.6543,2.14281 -0.606108,4.71549 0.739508,6.5736 0.384229,0.53057 0.961371,0.86407 1.442057,1.2961 0.599137,0.14916 1.182365,0.46432 1.797412,0.44746 1.419671,-0.039 2.931457,-0.76897 3.948541,-1.80986 0.481574,-0.49285 0.773364,-1.16029 1.160046,-1.74043 0.01981,-0.0299 -0.37639,-0.32877 -0.39621,-0.29889 v 0 C 79.041029,61.0748 78.2598,61.9 77.077889,62.57419 c -0.437716,0.24969 -0.900291,0.5028 -1.393893,0.5591 -0.500416,0.0571 -0.996231,-0.15318 -1.494347,-0.22976 -0.412873,-0.34182 -0.910425,-0.59164 -1.238623,-1.02545 -1.2179,-1.60977 -1.225812,-3.93954 -0.695954,-5.82092 0.181208,-0.64342 0.466057,-1.25354 0.781521,-1.83508 0.266712,-0.49167 0.636705,-0.91079 0.955058,-1.36619 0.11382,-0.0917 1.078434,-1.02223 1.506791,-0.97545 0.612131,0.0668 1.139538,1.02059 1.288179,1.57438 0.04266,0.15893 0.03039,0.32903 0.04559,0.49355 -0.003,0.0413 0.545755,0.086 0.548714,0.0446 z" />
    <path
       style="fill:#e2e8f0;fill-opacity:1;stroke-width:0.290212"
       id="path517"
       d="m 84.111175,56.84663 c 1.095151,-0.56114 2.145723,-1.3249 2.909144,-2.34965 0.173813,-0.23331 0.339482,-0.48072 0.44907,-0.75481 0.0892,-0.2231 0.09176,-0.47509 0.137639,-0.71263 -0.150295,-0.21482 -0.202239,-0.60522 -0.450883,-0.64444 -1.118267,-0.17636 -2.055021,0.90179 -2.639589,1.67781 -1.109975,1.47348 -1.615468,2.61087 -1.771784,4.54374 -0.06793,0.83993 0.112134,1.68185 0.168203,2.52278 0.299371,0.6692 0.434557,1.45495 0.898118,2.00759 1.656831,1.97523 4.409719,1.04164 6.13469,-0.19713 0.608209,-0.43677 1.084205,-1.05304 1.626305,-1.57956 0.03668,-0.0436 -0.542041,-0.59678 -0.578721,-0.55314 v 0 c -1.338934,1.10716 -1.823509,1.681 -3.444022,2.32203 -1.02155,0.40411 -2.056869,0.64596 -2.929236,-0.33229 -0.413342,-0.46351 -0.521179,-1.15218 -0.781767,-1.72826 -0.05388,-0.75707 -0.213111,-1.51395 -0.161637,-2.2712 0.123042,-1.81009 0.552939,-2.75629 1.50675,-4.19965 0.298577,-0.45183 0.6851,-0.82969 1.029903,-1.24241 0.15503,-0.18555 0.263271,-0.43676 0.469578,-0.55239 0.0981,-0.0549 0.210201,0.075 0.3153,0.11247 -0.03399,0.16798 -0.0328,0.34874 -0.101986,0.50396 -0.10637,0.23867 -0.260712,0.45103 -0.415577,0.65733 -0.727794,0.96953 -1.660811,1.72402 -2.623963,2.40602 -0.02411,0.0191 0.230339,0.38299 0.254464,0.3638 z" />
    <path
       style="fill:#e2e8f0;fill-opacity:1;stroke-width:0.290212"
       id="path533"
       d="m 93.807197,46.22235 c -0.422289,4.18504 -0.477596,8.40355 -0.369259,12.608 0.0272,1.05569 0.0466,2.11283 0.128339,3.16532 0.05909,0.76087 0.195783,1.51262 0.293671,2.26893 0.003,0.0566 0.75409,0.0203 0.75168,-0.0363 v 0 c 0.0921,-3.24103 0.0732,-1.60023 0.0377,-5.4113 -0.0391,-4.19246 -0.0699,-8.38532 -0.17803,-12.57655 10e-4,-0.0501 -0.662931,-0.0681 -0.664126,-0.018 z" />
    <path
       style="fill:#e2e8f0;fill-opacity:1;stroke-width:0.290212"
       id="path537"
       d="m 98.814548,45.66324 c -0.0253,0.3354 -0.0626,0.67002 -0.0758,1.00621 -0.17309,4.37417 0.096,8.82687 0.51464,13.17791 0.10017,1.04084 0.23811,2.07716 0.35716,3.11574 0.005,0.0735 0.980642,-0.002 0.975612,-0.0758 v 0 c -0.0505,-1.04205 -0.0874,-2.08491 -0.15123,-3.12612 -0.0471,-0.76753 -0.492582,-6.72632 -0.547422,-7.42041 -0.14924,-1.88859 -0.33968,-3.77334 -0.48492,-5.66229 -0.0251,-0.32536 -0.0318,-0.652 -0.0477,-0.97801 0.002,-0.0408 -0.53782,-0.0779 -0.5403,-0.0373 z" />
    <path
       style="fill:#e2e8f0;fill-opacity:1;stroke-width:0.290212"
       id="path547"
       d="m 111.40322,51.22347 c -0.33414,0.0402 -0.68108,0.0151 -1.00243,0.12062 -2.23254,0.73375 -4.35646,3.21546 -5.40978,5.34745 -0.30657,0.62052 -0.48595,1.30349 -0.72894,1.95523 -0.0474,0.58483 -0.23194,1.17535 -0.14204,1.75448 0.32097,2.06775 2.23007,2.38475 3.81845,1.83949 1.71057,-0.58722 2.46232,-1.68165 3.72636,-2.97145 1.31787,-2.01333 1.70023,-2.32303 2.50796,-4.5763 0.22337,-0.62312 0.40465,-1.26942 0.50189,-1.9284 0.0482,-0.3267 0.14306,-1.79766 -0.38133,-2.13683 -0.25792,-0.16683 -0.60207,-0.0417 -0.90311,-0.0626 -0.25181,0.37381 -0.56606,0.70786 -0.75544,1.12143 -0.54411,1.18822 -0.87274,2.95089 -1.00197,4.21765 -0.15849,1.55359 -0.14304,3.45774 0.0478,5.01406 0.0814,0.66366 0.25642,1.31039 0.38463,1.96558 0.21203,0.44345 0.42404,0.88692 0.63605,1.33037 0.007,0.0307 0.41483,-0.0864 0.40707,-0.11711 v 0 c -0.0602,-0.45121 -0.12045,-0.90243 -0.18067,-1.35364 -0.0909,-0.62651 -0.21346,-1.24873 -0.27286,-1.87953 -0.27646,-2.93568 -0.18912,-6.00334 0.6454,-8.83568 0.0879,-0.29796 0.23006,-0.57445 0.3451,-0.86167 0.0149,-0.0914 -0.0256,-0.32879 0.0446,-0.2741 0.40152,0.31271 0.16168,1.47957 0.12843,1.66353 -0.41607,2.30227 -1.47615,4.32256 -2.80717,6.16501 -0.55292,0.59786 -1.04124,1.27255 -1.65875,1.79358 -0.60383,0.5095 -2.03274,1.3647 -2.94843,1.34523 -0.8057,-0.0171 -1.3796,-0.50633 -1.47815,-1.38167 -0.0573,-0.50835 0.12408,-1.01544 0.18613,-1.52315 0.23878,-0.59658 0.42686,-1.21925 0.71635,-1.78973 1.0717,-2.11186 2.77782,-4.11787 4.83899,-5.15173 0.17464,-0.0875 0.3694,-0.11936 0.5541,-0.17905 0.0406,0.0137 0.22236,-0.59736 0.18184,-0.61108 z" />
    <path
       style="fill:#e2e8f0;fill-opacity:1;stroke-width:0.290212"
       id="path557"
       d="m 119.52445,52.66717 c -0.38877,2.68341 -0.48419,5.40883 -0.50815,8.12065 0.21509,-0.81047 -0.16037,1.23141 0.17558,1.11466 0.81369,-0.28278 0.85005,-1.12086 1.12551,-1.84143 0.72429,-1.89475 0.91635,-2.28835 1.74478,-4.22734 0.55725,-1.12432 1.3113,-2.79363 2.07901,-3.82747 0.25495,-0.34334 0.52766,-0.71279 0.90029,-0.89692 0.42162,-0.20834 0.84668,0.66303 1.03868,1.22713 0.21169,0.62197 0.31633,1.2796 0.4745,1.9194 0.43122,2.475 0.62256,4.98746 0.80838,7.49383 0.16735,2.25715 -0.0111,1.11471 0.31981,2.80412 -8.4e-4,0.0233 0.30811,0.0344 0.30884,0.0113 v 0 c 0.0937,-0.35427 0.24322,-0.69693 0.28107,-1.0628 0.0621,-0.6007 0.0338,-1.20887 0.0164,-1.81293 -0.0743,-2.57575 -0.36261,-5.14715 -0.9194,-7.6562 -0.27487,-0.83845 -0.67411,-2.75652 -1.60017,-3.32635 -0.97845,-0.60207 -1.74491,0.23434 -2.29466,0.9159 -0.9466,1.17356 -1.53445,2.55164 -2.21079,3.90293 -0.84299,2.12549 -0.95816,2.25531 -1.56551,4.358 -0.32478,1.1244 -0.49551,1.06267 -0.1075,1.88424 0.0166,0.0351 0.003,-0.0785 0.004,-0.11766 0.023,-0.27831 0.0459,-0.55663 0.0688,-0.83495 0.21453,-2.69896 0.23661,-5.40659 0.34218,-8.11199 0.002,-0.0364 -0.47989,-0.0724 -0.48227,-0.036 z" />
    <path
       style="fill:#e2e8f0;fill-opacity:1;stroke-width:0.290212"
       id="path559"
       d="m 130.63967,52.50051 c 1.03384,2.64183 2.16893,5.2602 3.59819,7.68999 0.24088,0.40951 0.51648,0.79461 0.77471,1.19191 0.0248,0.0526 0.72117,-0.31993 0.69647,-0.37244 v 0 c -1.48787,-2.91214 -2.89129,-5.87156 -4.36133,-8.79377 -0.0188,-0.0533 -0.72689,0.23093 -0.70804,0.28431 z" />
    <path
       style="fill:#e2e8f0;fill-opacity:1;stroke-width:0.290212"
       id="path563"
       d="m 139.61404,52.07335 c -1.53219,2.98512 -2.99933,6.00805 -4.35686,9.08796 -0.0881,0.24525 -0.1893,0.48559 -0.26433,0.73573 -0.20319,0.67729 -0.32664,1.37888 -0.49123,2.06797 -0.1667,0.69801 -0.3388,1.39453 -0.50791,2.09188 -1.02946,4.24508 -0.51587,2.0736 -1.62304,6.93475 -0.73638,3.61408 -1.01072,4.81516 -1.62875,8.40322 -0.19464,1.13007 -0.4163,2.25708 -0.54027,3.39842 -0.09,0.82812 -0.0668,1.66578 -0.10016,2.49867 -0.005,0.0368 0.48319,0.11819 0.48858,0.0813 v 0 c 0.25116,-0.79361 0.54889,-1.57215 0.75346,-2.3808 0.28037,-1.10823 0.47215,-2.23982 0.69934,-3.36181 0.80229,-3.96213 0.85588,-4.34114 1.6095,-8.39023 0.0836,-0.46204 1.10744,-6.10767 1.26113,-7.00818 0.12089,-0.70837 0.22742,-1.41946 0.33881,-2.12961 0.0764,-0.48689 0.18521,-1.43713 0.36183,-1.97682 0.0747,-0.22827 0.18848,-0.43979 0.28271,-0.65967 1.70455,-2.89837 3.11566,-5.99414 4.31882,-9.16267 0.0153,-0.0453 -0.58635,-0.27552 -0.60161,-0.23016 z" />
  </g>
</svg>
