<?xml version="1.0" encoding="UTF-8" standalone="no"?>
<!-- Created with Inkscape (http://www.inkscape.org/) -->

<svg
   width="75.252586mm"
   height="33.020836mm"
   viewBox="0 0 75.252586 33.020836"
   version="1.1"
   id="svg4238"
   inkscape:version="1.2.1 (9c6d41e, 2022-07-14)"
   sodipodi:docname="recipes.svg"
   xmlns:inkscape="http://www.inkscape.org/namespaces/inkscape"
   xmlns:sodipodi="http://sodipodi.sourceforge.net/DTD/sodipodi-0.dtd"
   xmlns="http://www.w3.org/2000/svg"
   xmlns:svg="http://www.w3.org/2000/svg">
  <sodipodi:namedview
     id="namedview4240"
     pagecolor="#ffffff"
     bordercolor="#000000"
     borderopacity="0.25"
     inkscape:showpageshadow="2"
     inkscape:pageopacity="0.0"
     inkscape:pagecheckerboard="0"
     inkscape:deskcolor="#d1d1d1"
     inkscape:document-units="mm"
     showgrid="false"
     inkscape:zoom="0.78127806"
     inkscape:cx="271.99023"
     inkscape:cy="400.62561"
     inkscape:window-width="2560"
     inkscape:window-height="1412"
     inkscape:window-x="1920"
     inkscape:window-y="28"
     inkscape:window-maximized="0"
     inkscape:current-layer="layer1" />
  <defs
     id="defs4235" />
  <g
     inkscape:label="Layer 1"
     inkscape:groupmode="layer"
     id="layer1"
     transform="translate(-33.152495,-42.415467)">
    <path
       style="fill:#e2e8f0;fill-opacity:1;stroke-width:0.264583"
       id="path2195"
       d="m 33.152934,46.995954 c 0.0103,0.323244 0.008,0.647131 0.0308,0.969737 0.28313,4.008729 1.01068,7.979328 1.82422,11.908655 0.14812,0.580544 0.28184,1.164955 0.44438,1.74163 0.0429,0.152117 0.52421,2.39807 1.11767,0.773825 0.1446,-0.395753 0.0454,-0.8415 0.0755,-1.261769 0.0494,-0.691547 0.10862,-1.382363 0.16294,-2.073548 0.21568,-1.588367 0.52003,-4.096599 0.88081,-5.647735 0.20801,-0.894302 0.39951,-1.806077 0.77952,-2.641922 0.33339,-0.733288 0.79912,-1.413341 1.33686,-2.013088 1.06762,-1.190736 1.64063,-1.252937 2.99334,-1.775251 0.0371,-0.01931 -0.23622,-0.54379 -0.2733,-0.524465 v 0 c -0.627,0.124677 -1.30371,0.09941 -1.88099,0.374028 -0.69202,0.3292 -1.31232,0.826477 -1.83014,1.391386 -1.45481,1.587082 -1.87787,2.949038 -2.35825,5.014471 -0.50718,2.180664 -0.53002,3.589826 -0.6959,5.798748 0.0165,0.705416 0.009,1.411793 0.0495,2.116251 0.0374,0.653661 -0.14489,1.48731 0.73516,1.603804 0.0911,0.01206 0.006,-0.184449 -0.005,-0.275797 -0.0779,-0.680098 -0.34587,-2.282703 -0.42524,-2.77823 -0.3298,-1.870292 -0.54118,-3.077395 -0.88154,-4.971304 -0.41152,-2.289847 -0.80715,-4.586597 -1.36027,-6.847829 -0.0765,-0.312569 -0.17257,-0.619999 -0.25886,-0.929995 -0.003,-0.03264 -0.46505,0.01574 -0.46163,0.0484 z" />
    <path
       style="fill:#e2e8f0;fill-opacity:1;stroke-width:0.264583"
       id="path2201"
       d="m 44.995334,54.513822 c 0.25105,-0.03111 0.51395,-0.01103 0.75316,-0.09334 1.81043,-0.622845 3.44955,-1.978988 4.74085,-3.352478 0.46213,-0.49155 0.93256,-0.990679 1.27487,-1.572072 0.24514,-0.416345 0.30667,-0.916347 0.46,-1.374521 -0.15174,-0.298831 -0.15415,-0.749278 -0.45524,-0.89649 -1.2378,-0.6052 -2.4634,0.36639 -3.28698,1.092666 -1.34041,1.18206 -2.54632,2.888493 -3.30112,4.492429 -0.39796,0.845656 -0.61399,1.765514 -0.92098,2.648273 -0.0777,1.548735 -0.52654,2.842178 0.72112,4.096088 1.07137,1.076746 2.70379,0.925629 3.99515,0.541822 1.77401,-0.527259 2.70557,-1.516922 4.09151,-2.646257 1.71944,-2.040593 1.05616,-0.994029 2.09266,-3.072109 0.0212,-0.042 -0.57277,-0.341405 -0.59394,-0.299407 v 0 c -1.32317,1.719905 -0.57686,0.824002 -2.27299,2.658988 -1.47718,1.211207 -1.90904,1.745324 -3.67551,2.496717 -0.48447,0.206076 -0.99854,0.409771 -1.52501,0.411019 -1.15284,0.0027 -1.79557,-0.582051 -1.92765,-1.74445 -0.0798,-0.701969 0.14975,-1.405015 0.22463,-2.10752 0.30036,-0.817931 0.53235,-1.664322 0.90108,-2.453794 0.71113,-1.522555 1.74084,-3.087446 2.89289,-4.321093 0.40212,-0.430598 0.87711,-0.788723 1.3452,-1.146505 0.19313,-0.147611 0.38855,-0.363853 0.63162,-0.364461 0.14885,-2.65e-4 0.1741,0.241485 0.26115,0.362227 -0.15845,0.364972 -0.25613,0.762863 -0.47533,1.094915 -0.60448,0.915667 -1.94809,2.257036 -2.73954,2.96473 -0.4533,0.405331 -2.00508,1.658401 -2.66902,2.02083 -0.20221,0.110379 -0.44176,0.130902 -0.66264,0.196355 -0.026,0.0085 0.0941,0.375925 0.12006,0.367435 z" />
    <path
       style="fill:#e2e8f0;fill-opacity:1;stroke-width:0.264583"
       id="path2215"
       d="m 65.618274,49.670558 c -0.0258,-0.17344 -0.0284,-0.351936 -0.0773,-0.520319 -0.36905,-1.270442 -1.40187,-2.286006 -2.64484,-2.725529 -0.38345,-0.135591 -0.79725,-0.161419 -1.19587,-0.242128 -0.49249,0.06807 -1.02562,-0.0032 -1.47745,0.2042 -0.50991,0.234056 -0.95433,0.627637 -1.29909,1.070272 -0.43987,0.564734 -0.8238,1.20384 -1.01047,1.894898 -0.47255,1.749306 -0.23657,3.757916 0.37948,5.430131 0.30992,0.841258 0.85504,1.576059 1.28257,2.364086 0.57442,0.538007 1.0601,1.190207 1.72328,1.614017 1.80813,1.155504 4.04638,0.928116 5.5536,-0.599395 0.40973,-0.415256 0.62695,-0.983975 0.94043,-1.475963 0.0208,-0.03366 -0.45523,-0.327789 -0.47603,-0.294129 v 0 c -0.84329,0.882042 -1.20643,1.436338 -2.35756,1.944023 -0.39536,0.174364 -0.8315,0.334206 -1.26194,0.29644 -1.55192,-0.136158 -1.99197,-0.943129 -3.0604,-1.957277 -0.38658,-0.707834 -0.86842,-1.371436 -1.15974,-2.123506 -0.54278,-1.401257 -0.87738,-3.297507 -0.59099,-4.809445 0.11393,-0.601474 0.39965,-1.170088 0.73135,-1.684604 0.23388,-0.362776 0.56808,-0.667589 0.93334,-0.897562 0.24195,-0.152332 0.55388,-0.142108 0.83082,-0.213165 0.343,0.04809 0.69595,0.04919 1.029,0.144254 0.3374,0.09631 0.6566,0.253918 0.96326,0.424426 0.92414,0.513842 1.43707,1.211942 1.7591,2.197013 0.003,0.03432 0.48832,-0.0064 0.48544,-0.04074 z" />
    <path
       style="fill:#e2e8f0;fill-opacity:1;stroke-width:0.264583"
       id="path2223"
       d="m 69.877464,47.034472 c -0.0715,3.579484 0.0141,7.170327 0.40644,10.731441 0.0792,0.718521 0.19609,1.432375 0.29414,2.148565 0.14237,0.462725 0.28474,0.925452 0.42711,1.388179 0.004,0.03788 0.53918,-0.01191 0.53566,-0.04978 v 0 c 0.0385,-0.474686 0.0771,-0.949373 0.11558,-1.424059 -0.1331,-2.537709 -0.3285,-5.065959 -0.56265,-7.596545 -0.13709,-1.481542 -0.2536,-2.776135 -0.46462,-4.231491 -0.05,-0.345065 -0.12201,-0.686591 -0.18301,-1.029886 -0.005,-0.04021 -0.57315,0.02336 -0.56865,0.06358 z" />
    <path
       style="fill:#e2e8f0;fill-opacity:1;stroke-width:0.264583"
       id="path2227"
       d="m 69.405264,42.441844 c 0.002,0.190289 -0.005,0.665085 0.0451,0.844535 0.0373,0.132407 0.12404,0.245561 0.18606,0.368341 0.003,0.02176 0.31115,-0.02753 0.30767,-0.04929 v 0 c 0.0155,-0.120422 0.0453,-0.239858 0.0464,-0.361265 0.001,-0.150621 -0.0668,-0.639581 -0.0879,-0.802321 0,-0.03517 -0.49739,-0.03517 -0.49739,0 z" />
    <path
       style="fill:#e2e8f0;fill-opacity:1;stroke-width:0.264583"
       id="path2229"
       d="m 75.270844,48.76531 c -0.0431,0.424079 -0.10599,0.846608 -0.12926,1.272235 -0.1604,2.933669 -0.1468,4.490114 0.007,7.592595 0.15748,3.182035 0.46274,6.633456 0.85545,9.799288 0.16207,1.306534 0.38108,2.605373 0.57162,3.90806 0.67389,3.206115 0.19753,1.869969 1.1767,4.089646 0.006,0.03711 0.53089,-0.048 0.52487,-0.08511 v 0 c 0.1024,-2.340988 0.0981,-0.954439 -0.14127,-4.157265 -0.39663,-4.554345 -0.82398,-9.103871 -1.30507,-13.650214 -0.15554,-1.469845 -0.30429,-2.940537 -0.48052,-4.408043 -0.1236,-1.029208 -0.29557,-2.052222 -0.4189,-3.081462 -0.0499,-0.416695 -0.0671,-0.836663 -0.10071,-1.254995 0.002,-0.03957 -0.5579,-0.06431 -0.55965,-0.02474 z" />
    <path
       style="fill:#e2e8f0;fill-opacity:1;stroke-width:0.264583"
       id="path2239"
       d="m 76.137104,51.620965 c 1.06479,-1.333968 2.29307,-2.316546 3.78039,-3.161627 0.52866,-0.300377 1.05579,-0.617416 1.62833,-0.822114 0.50027,-0.178861 1.04116,-0.212272 1.56174,-0.31841 0.34775,0.08933 0.73493,0.08401 1.04326,0.267986 0.81566,0.486701 1.14173,1.310682 1.07786,2.247061 -0.0948,1.390513 -0.92202,3.049148 -1.67318,4.144854 -0.50124,0.731152 -1.144,1.354463 -1.716,2.031696 -1.84077,1.395399 -2.00857,1.709449 -4.04305,2.592117 -0.4795,0.208032 -0.9942,0.323043 -1.4913,0.484564 -0.0404,0.01807 0.2152,0.589901 0.25564,0.571825 v 0 c 0.62035,-0.06649 1.26301,-0.02172 1.86107,-0.199467 2.0704,-0.615293 2.76353,-1.438296 4.46576,-2.769004 0.59575,-0.751655 1.28235,-1.439498 1.78724,-2.254965 1.10144,-1.778971 2.13633,-4.515818 0.97007,-6.541682 -0.2635,-0.457722 -0.6625,-0.872628 -1.13803,-1.102445 -0.54447,-0.263133 -1.1915,-0.207534 -1.78725,-0.311303 -0.58166,0.136292 -1.18634,0.197135 -1.74497,0.408871 -0.5975,0.226472 -1.15398,0.555305 -1.69515,0.895045 -1.27709,0.801728 -2.44169,1.8307 -3.23012,3.128942 -0.11333,0.1866 -0.17919,0.398166 -0.26879,0.597252 -0.008,0.02521 0.34864,0.136011 0.35648,0.110804 z" />
    <path
       style="fill:#e2e8f0;fill-opacity:1;stroke-width:0.264583"
       id="path2251"
       d="m 91.004914,52.908216 c 0.22115,-0.09218 0.45279,-0.16238 0.66344,-0.276526 1.57079,-0.851194 3.20305,-2.2479 3.8624,-3.948954 0.145,-0.37411 0.16118,-0.786104 0.24177,-1.179155 -0.14022,-0.29836 -0.1574,-0.696632 -0.42064,-0.895078 -0.90584,-0.682866 -2.13917,0.04114 -2.82104,0.571503 -1.23078,0.957307 -2.2796,2.670355 -2.84687,4.070799 -0.33044,0.815785 -0.47102,1.696149 -0.70653,2.544223 0.0239,1.626066 -0.34783,2.913211 1.08197,4.122447 1.27204,1.075822 3.12957,0.889714 4.5717,0.505446 1.84462,-0.491516 2.52025,-1.249997 3.94398,-2.376154 0.0476,-0.04693 -0.61603,-0.720563 -0.66367,-0.673634 v 0 c -1.46451,0.962348 -2.00016,1.433219 -3.68748,2.042596 -0.92448,0.333878 -2.33272,0.727919 -3.28106,0.06534 -1.2184,-0.851259 -0.82495,-2.225958 -0.81047,-3.417096 0.21936,-0.780497 0.36662,-1.584955 0.65807,-2.341496 0.61418,-1.594281 1.25411,-2.588117 2.35655,-3.844965 0.16938,-0.193098 1.00045,-1.134327 1.53764,-0.978704 0.17445,0.05054 0.19849,0.304226 0.29773,0.45634 -0.0799,0.321159 -0.10935,0.659299 -0.23975,0.963475 -0.17473,0.407553 -0.41484,0.786215 -0.66681,1.151096 -0.86286,1.249524 -2.02377,2.255991 -3.28293,3.088241 -0.0248,0.015 0.18724,0.365241 0.212,0.350252 z" />
    <path
       style="fill:#e2e8f0;fill-opacity:1;stroke-width:0.264583"
       id="path2257"
       d="m 106.30696,45.632727 c -0.21021,0.0305 -0.42389,0.04269 -0.63062,0.09149 -1.39775,0.329923 -2.75651,0.918426 -3.98643,1.653737 -0.48476,0.289809 -0.96697,0.591484 -1.40102,0.952833 -0.379396,0.315852 -0.684126,0.711891 -1.026186,1.067835 -0.13521,0.36335 -0.39608,0.702474 -0.40562,1.090046 -0.04,1.62577 2.233616,2.061985 3.324376,2.357999 2.71341,0.629076 1.39951,0.291327 3.94411,1.003858 0.40728,0.220049 0.90501,0.322625 1.22183,0.660146 0.58301,0.621104 -0.0596,1.426046 -0.44323,1.835213 -0.89325,0.952805 -1.83149,1.399009 -2.95113,2.046753 -0.51422,0.297487 -1.03195,0.588841 -1.54793,0.883262 -0.042,0.02914 0.37006,0.623591 0.4121,0.59445 v 0 c 0.61761,-0.215125 1.26469,-0.35936 1.85285,-0.645375 1.43181,-0.69628 3.6314,-2.261116 3.73221,-4.070694 0.0267,-0.479136 -0.13816,-0.995772 -0.43602,-1.37202 -0.33134,-0.418531 -0.89465,-0.582589 -1.34197,-0.873885 -0.63779,-0.18856 -1.26576,-0.414215 -1.91336,-0.565687 -0.43263,-0.101195 -3.31242,-0.560729 -3.87121,-0.70417 -0.29251,-0.07509 -1.302696,-0.288448 -1.264416,-0.901131 0.0182,-0.291412 0.25445,-0.525608 0.38168,-0.788413 0.331876,-0.301294 0.640156,-0.630822 0.995626,-0.903883 0.42729,-0.328229 0.88627,-0.614048 1.34607,-0.894927 1.15746,-0.707059 2.39522,-1.326581 3.66771,-1.800614 0.18663,-0.06952 0.38093,-0.116358 0.57139,-0.174537 0.0383,-0.01632 -0.19247,-0.558604 -0.23081,-0.542283 z" />
  </g>
</svg>
